HIERARCHY
ROOT Pelvis
{
	OFFSET 0.000000 0.000000 0.000000
	CHANNELS 6 Xposition Yposition Zposition Zrotation Yrotation Xrotation 
	JOINT Left_hip
	{
		OFFSET 0.069463 -0.088608 -0.009542
		CHANNELS 3 Zrotation Yrotation Xrotation
		JOINT Left_knee
		{
			OFFSET 0.030639 -0.359740 -0.005288
			CHANNELS 3 Zrotation Yrotation Xrotation
			JOINT Left_ankle
			{
				OFFSET -0.011068 -0.376034 -0.042462
				CHANNELS 3 Zrotation Yrotation Xrotation
				JOINT Left_foot
				{
					OFFSET 0.023192 -0.053321 0.111332
					CHANNELS 3 Zrotation Yrotation Xrotation
					End Site
					{
						OFFSET 0.000000 0.000000 0.000000
					}
				}
			}
		}
	}
	JOINT Right_hip
	{
		OFFSET -0.067438 -0.088025 -0.006263
		CHANNELS 3 Zrotation Yrotation Xrotation
		JOINT Right_knee
		{
			OFFSET -0.035962 -0.366229 -0.008063
			CHANNELS 3 Zrotation Yrotation Xrotation
			JOINT Right_ankle
			{
				OFFSET 0.013608 -0.375719 -0.040481
				CHANNELS 3 Zrotation Yrotation Xrotation
				JOINT Right_foot
				{
					OFFSET -0.021034 -0.045527 0.114617
					CHANNELS 3 Zrotation Yrotation Xrotation
					End Site
					{
						OFFSET 0.000000 0.000000 0.000000
					}
				}
			}
		}
	}
	JOINT Spine1
	{
		OFFSET -0.002610 0.101823 -0.019986
		CHANNELS 3 Zrotation Yrotation Xrotation
		JOINT Spine2
		{
			OFFSET 0.004114 0.128714 -0.000938
			CHANNELS 3 Zrotation Yrotation Xrotation
			JOINT Spine3
			{
				OFFSET 0.002191 0.048470 0.027684
				CHANNELS 3 Zrotation Yrotation Xrotation
				JOINT Neck
				{
					OFFSET -0.002856 0.198873 -0.044022
					CHANNELS 3 Zrotation Yrotation Xrotation
					JOINT Head
					{
						OFFSET 0.002981 0.062960 0.049860
						CHANNELS 3 Zrotation Yrotation Xrotation
						End Site
						{
							OFFSET 0.000000 0.000000 0.000000
						}
					}
				}
				JOINT Left_collar
				{
					OFFSET 0.073708 0.112550 -0.033440
					CHANNELS 3 Zrotation Yrotation Xrotation
					JOINT Left_shoulder
					{
						OFFSET 0.083291 0.030786 -0.008013
						CHANNELS 3 Zrotation Yrotation Xrotation
						JOINT Left_elbow
						{
							OFFSET 0.245601 -0.011792 -0.027873
							CHANNELS 3 Zrotation Yrotation Xrotation
							JOINT Left_wrist
							{
								OFFSET 0.232258 0.008622 -0.000487
								CHANNELS 3 Zrotation Yrotation Xrotation
								JOINT Left_palm
								{
									OFFSET 0.077300 -0.009457 -0.012851
									CHANNELS 3 Zrotation Yrotation Xrotation
									End Site
									{
										OFFSET 0.000000 0.000000 0.000000
									}
								}
							}
						}
					}
				}
				JOINT Right_collar
				{
					OFFSET -0.075339 0.110574 -0.037874
					CHANNELS 3 Zrotation Yrotation Xrotation
					JOINT Right_shoulder
					{
						OFFSET -0.086522 0.031207 -0.009986
						CHANNELS 3 Zrotation Yrotation Xrotation
						JOINT Right_elbow
						{
							OFFSET -0.237313 -0.011478 -0.019859
							CHANNELS 3 Zrotation Yrotation Xrotation
							JOINT Right_wrist
							{
								OFFSET -0.237599 0.007976 -0.003742
								CHANNELS 3 Zrotation Yrotation Xrotation
								JOINT Right_palm
								{
									OFFSET -0.076920 -0.006943 -0.009920
									CHANNELS 3 Zrotation Yrotation Xrotation
									End Site
									{
										OFFSET 0.000000 0.000000 0.000000
									}
								}
							}
						}
					}
				}
			}
		}
	}
}
MOTION
Frames: 6
Frame Time: 0.100000
0.000000 0.000000 0.000000 176.538450 29.179744 -30.586044 4.245234 6.488357 21.512806 3.160535 -13.214080 -0.341149 -3.461390 3.620853 -4.184149 0.381078 14.353209 -6.892380 -2.810049 -3.398312 23.754580 -2.844971 2.628709 -4.081671 1.341409 -5.574096 -3.390267 6.386183 -7.986601 -2.430594 2.011543 1.319762 13.019181 0.291242 -7.070787 8.893279 0.454467 -4.154220 -1.269863 0.072829 -11.024443 7.380813 1.501815 -10.575011 -6.736868 -28.353667 -2.239835 5.905508 -54.206822 -6.583929 0.908195 5.450589 -17.687994 5.802050 -3.561759 -3.741974 6.365801 -10.504066 -4.381828 -12.923573 19.817839 -0.129972 -1.414582 62.057621 -6.630882 17.286349 -151.306739 62.384575 -121.182651 -9.874594 10.365051 -10.552327 15.219819 11.053409 -4.269179 
-0.002673 0.001499 -0.007321 176.358099 28.045730 -30.790304 4.140316 6.702778 21.713361 3.315964 -12.141126 -0.145754 -3.027704 3.875090 -4.777150 0.497936 14.663910 -6.007858 -2.411316 -2.761565 23.157023 -3.190572 3.029065 -3.719848 1.590870 -5.068120 -2.919779 6.310805 -8.057955 -2.838287 1.832234 1.626370 14.095651 0.923715 -7.371220 9.456927 0.765237 -3.989639 -1.451982 0.924865 -11.009169 6.504709 1.863748 -11.718191 -6.714600 -29.026854 -3.629679 6.245069 -54.487903 -6.536476 0.281068 5.383059 -16.504821 4.573541 -2.960428 -3.804006 7.594459 -11.484191 -5.203008 -13.472225 20.878484 1.265641 -1.585021 63.101443 -5.557423 18.004456 -158.827398 55.912931 -125.660674 -11.599557 11.637317 -7.608821 16.308701 11.950564 -4.830736 
-0.005561 0.003480 -0.015557 176.193140 27.037809 -30.843909 3.938385 6.770024 21.139970 3.289943 -11.596426 0.460944 -2.611475 4.145342 -5.192931 0.325716 14.793573 -5.554943 -2.138342 -2.268939 22.134122 -3.391681 3.196866 -2.922520 1.700025 -4.844759 -2.602540 6.439205 -8.057436 -3.077723 1.522137 1.536175 15.113622 1.364917 -7.693045 9.614338 1.063494 -4.166389 -1.464302 1.100782 -10.707676 6.109190 2.020367 -12.026412 -6.942856 -29.153945 -4.370685 6.651532 -54.484528 -6.707354 0.375879 5.185255 -16.449393 4.765042 -2.454413 -3.848963 8.312823 -11.561501 -5.364006 -13.676872 21.631635 1.772649 -1.420637 64.000739 -5.821548 18.772977 -161.069355 55.248464 -127.181479 -11.933587 11.854444 -7.248113 16.449573 12.170620 -5.024048 
-0.009293 0.006350 -0.026091 176.600169 25.272326 -30.480423 3.303616 6.871214 19.772792 3.063718 -10.983793 1.640040 -1.996849 4.423739 -5.360529 -0.216996 15.318038 -5.588966 -2.224037 -1.790768 20.714562 -3.692534 3.634194 -2.348910 1.924549 -4.791329 -2.172821 6.305621 -7.732529 -3.182882 1.637556 1.410818 16.210260 1.198965 -7.511460 9.667440 1.049697 -4.149400 -1.488447 1.066893 -10.660327 5.719427 2.399268 -11.628565 -7.762341 -29.154497 -5.072851 6.747092 -53.471567 -7.023384 0.466637 5.163086 -17.244686 4.357563 -3.283558 -3.509742 8.336381 -11.414374 -5.157883 -13.760105 21.349981 2.392142 -1.045154 63.624186 -6.192838 19.002030 -159.970403 56.451984 -127.750771 -10.613986 11.064908 -9.518904 16.231171 12.016596 -5.145193 
-0.011389 0.009946 -0.043117 176.568233 23.909246 -29.369662 2.752485 6.705832 17.110559 2.509521 -10.352757 3.005479 -1.214735 5.066859 -5.567527 -1.264141 15.032232 -5.197841 -2.180669 -1.365655 17.302592 -3.870625 3.960995 -0.275561 2.075624 -4.474298 -2.321741 6.512316 -7.710790 -3.129084 1.853131 1.091840 18.485783 1.001552 -7.027840 9.182747 1.333403 -3.852346 -1.696883 2.291839 -10.750945 2.883612 4.633437 -10.723464 -11.137171 -29.075036 -6.310181 6.463970 -52.400383 -7.622349 1.385717 5.224282 -18.170993 5.680538 -3.144238 -3.742706 9.036941 -10.193763 -4.732764 -12.983336 20.865862 3.885816 -0.444313 61.812512 -5.505486 17.638964 -145.738897 66.666685 -115.527015 -9.191985 10.007160 -6.375252 14.690480 11.571256 -5.208896 
-0.005898 0.014183 -0.061291 175.301544 23.704383 -27.690423 3.466918 6.118385 13.078435 1.611522 -10.046864 3.814357 -1.265253 5.665518 -5.660582 -1.199765 12.725366 -3.981301 -2.339876 -2.173930 9.378906 -3.244313 -1.127801 9.118814 -0.278463 -6.575097 -7.211800 8.398647 -9.284202 -2.108593 1.382286 0.768781 21.396187 1.550758 -6.436621 7.845184 2.185787 -3.349333 -2.432360 4.659322 -10.717001 -1.146130 8.540802 -11.126045 -14.734655 -28.106538 -8.529760 6.473837 -52.012998 -8.976612 3.181927 5.767328 -18.306909 9.624854 -7.671991 -2.921974 9.059415 -6.678423 -3.447130 -10.917620 21.173207 6.175072 0.718788 61.289822 -3.843403 14.040861 -79.187957 72.308533 -47.714611 0.230421 6.558188 2.625693 8.856508 10.120867 -3.437740 
